<?xml version="1.0" encoding="utf-8"?>
<!-- Generator: Adobe Illustrator 25.2.1, SVG Export Plug-In . SVG Version: 6.00 Build 0)  -->
<svg version="1.1" id="Réteg_1" xmlns="http://www.w3.org/2000/svg" xmlns:xlink="http://www.w3.org/1999/xlink" x="0px" y="0px"
	 viewBox="0 0 80 80" style="enable-background:new 0 0 80 80;" xml:space="preserve">
<style type="text/css">
	.st0{enable-background:new    ;}
	.st1{fill:#DF1B14;}
</style>
<g class="st0">
	<path class="st1" d="M34.8,34.3c0-1.1,0.4-1.1,3.4-1.1c1.7,0,2.8-0.9,2.8-2c0-4.1,0-4.5-1.1-4.5s-1.1,0.4-1.1,3.5
		c0,0.4-0.3,0.7-0.8,0.7l-11.7-0.5c-0.4,0-0.6-0.2-0.6-0.6c0-5.2,0-16.4,14.1-16.4c8.4,0,14.2,5.2,14.2,13.6c0,5.8-3.2,9.6-5.9,11
		c-0.4,0.3-0.8,0.4-0.8,0.6s0.4,0.3,0.9,0.5c2.5,0.8,6.3,4.6,6.3,10.7c0,9-6,15.7-14.8,15.7c-8.6,0-14.7-6.5-14.7-15.5
		c0-3,0-3.4,0.4-3.4L38.3,46c0.4,0,0.5,0.2,0.5,0.6c0,4.1,0,4.5,1.1,4.5c0.6,0,1.1-0.5,1.1-1.4c0-5.1,0-6.3-2.8-6.3
		c-3.1,0-3.4,0-3.4-0.8V34.3z"/>
</g>
</svg>
