<?xml version="1.0" encoding="utf-8"?>
<!-- Generator: Adobe Illustrator 25.2.1, SVG Export Plug-In . SVG Version: 6.00 Build 0)  -->
<svg version="1.1" id="Réteg_1" xmlns="http://www.w3.org/2000/svg" xmlns:xlink="http://www.w3.org/1999/xlink" x="0px" y="0px"
	 viewBox="0 0 80 80" style="enable-background:new 0 0 80 80;" xml:space="preserve">
<style type="text/css">
	.st0{enable-background:new    ;}
	.st1{fill:#021A66;}
</style>
<g class="st0">
	<path class="st1" d="M38.1,55.7c0-0.2-0.1-0.4-0.4-0.4H25.1c-0.2,0-0.5-0.2-0.5-0.5V43.6c0-0.3,0.1-0.6,0.2-0.8L40.5,14
		c0.1-0.3,0.5-0.6,0.8-0.6h10.4c0.3,0,0.6,0.3,0.6,0.6v28c0,0.6,0.3,1.1,1.3,1.1c1.1,0,2,0.1,2,0.8v10.8c0,0.5-0.9,0.6-1.7,0.6
		c-0.8,0-1.6,0.4-1.6,0.9v8.7c0,0.3-0.2,0.5-0.6,0.5H38.6c-0.2,0-0.5-0.2-0.5-0.5V55.7z M34.9,42.8c-0.1,0.4,0.1,0.4,2.7,0.4
		c0.2,0,0.4-0.1,0.4-0.4V38c0-0.3-0.1-0.4-0.3-0.4s-0.3,0.1-0.4,0.4L34.9,42.8z"/>
</g>
</svg>
