<?xml version="1.0" encoding="utf-8"?>
<!-- Generator: Adobe Illustrator 25.2.1, SVG Export Plug-In . SVG Version: 6.00 Build 0)  -->
<svg version="1.1" id="Réteg_1" xmlns="http://www.w3.org/2000/svg" xmlns:xlink="http://www.w3.org/1999/xlink" x="0px" y="0px"
	 viewBox="0 0 80 80" style="enable-background:new 0 0 80 80;" xml:space="preserve">
<style type="text/css">
	.st0{enable-background:new    ;}
	.st1{fill:#8F1913;}
</style>
<g class="st0">
	<path class="st1" d="M28.4,13.9c0.1-0.3,0.3-0.5,0.6-0.5h26.1c0.3,0,0.4,0.1,0.4,0.5l-1.3,13.9c-0.1,0.4-0.3,0.5-0.6,0.5l-16.2-1.1
		c-0.7-0.1-0.9,2.9-0.9,3.4c0,0.2,0.1,0.2,0.1,0.2s0.2-0.1,0.5-0.2c0.8-0.6,2.5-0.9,4.1-0.9c8.9,0,14.8,7.5,14.8,17.6
		c0,11.9-6.5,18.1-16,18.1c-9.3,0-14.8-8-14.8-15.4v-3.6c0-0.3,0.1-0.5,0.4-0.5l13.1-0.5c0.3,0,0.4,0.1,0.4,0.5c0,3.3,0,4.1,1.1,4.1
		c1.1,0,1.1-0.5,1.1-4.9c0-2.9-1.1-4.5-3.3-4.5c-1.4,0-2.3,1.1-2.7,2.4c-0.1,0.4-0.4,0.6-0.8,0.6l-8.2-0.7c-0.3,0-0.6-0.1-0.6-0.6
		L28.4,13.9z"/>
</g>
</svg>
