<?xml version="1.0" encoding="utf-8"?>
<!-- Generator: Adobe Illustrator 25.2.1, SVG Export Plug-In . SVG Version: 6.00 Build 0)  -->
<svg version="1.1" id="Réteg_1" xmlns="http://www.w3.org/2000/svg" xmlns:xlink="http://www.w3.org/1999/xlink" x="0px" y="0px"
	 viewBox="0 0 80 80" style="enable-background:new 0 0 80 80;" xml:space="preserve">
<style type="text/css">
	.st0{enable-background:new    ;}
	.st1{fill:#007FA0;}
</style>
<g class="st0">
	<path class="st1" d="M24.9,32.4c0-10.8,6.5-18,14.7-18c8.9,0,15.2,6.1,15.2,16.3c0,0.4-0.2,0.6-0.6,0.7l-12.2,0.5
		c-0.3,0-0.5-0.3-0.5-0.6c0-3.4,0-4.4-1.1-4.4c-0.4,0-1.1,0.4-1.1,1.3v12.1c0,0.4,0.2,0.6,0.4,0.6c0.2,0,0.4-0.1,0.8-0.6
		c1-1.1,2.5-2.2,5.2-2.2c5.2,0,9.3,4.7,9.3,13.1c0,9.1-6.8,15.1-14.7,15.1c-10.7,0-15.5-8.9-15.5-20V32.4z M41.5,48.9
		c0-1-0.4-1.4-1.1-1.4c-0.7,0-1.1,0.4-1.1,1.4v2.6c0,0.6,0.4,0.8,1.1,0.8c0.6,0,1.1-0.1,1.1-0.9V48.9z"/>
</g>
</svg>
