<?xml version="1.0" encoding="utf-8"?>
<!-- Generator: Adobe Illustrator 25.2.1, SVG Export Plug-In . SVG Version: 6.00 Build 0)  -->
<svg version="1.1" id="Réteg_1" xmlns="http://www.w3.org/2000/svg" xmlns:xlink="http://www.w3.org/1999/xlink" x="0px" y="0px"
	 viewBox="0 0 80 80" style="enable-background:new 0 0 80 80;" xml:space="preserve">
<style type="text/css">
	.st0{enable-background:new    ;}
	.st1{fill:#F0C002;}
</style>
<g class="st0">
	<path class="st1" d="M28.1,14.9c0-0.3,0.2-0.4,0.5-0.4h22.1c0.6,0,1.1,0.2,1.1,0.5v13.4c0,0.6-0.1,0.9-0.4,1.3
		c-3.7,6.5-6.6,18.5-6.6,36.2c0,0.3-0.3,0.6-0.6,0.6H29.6c-0.4,0-0.7-0.3-0.7-0.8c0-3.4,3.2-27,9.6-36.2c0.2-0.4,0.4-0.6,0.4-0.8
		c0-0.2-0.4-0.2-0.6-0.2h-9.6c-0.2,0-0.4-0.1-0.4-0.5V14.9z"/>
</g>
</svg>
