<?xml version="1.0" encoding="utf-8"?>
<!-- Generator: Adobe Illustrator 25.2.1, SVG Export Plug-In . SVG Version: 6.00 Build 0)  -->
<svg version="1.1" id="Réteg_1" xmlns="http://www.w3.org/2000/svg" xmlns:xlink="http://www.w3.org/1999/xlink" x="0px" y="0px"
	 viewBox="0 0 80 80" style="enable-background:new 0 0 80 80;" xml:space="preserve">
<style type="text/css">
	.st0{enable-background:new    ;}
	.st1{fill:#1D1D1B;}
</style>
<g class="st0">
	<path class="st1" d="M54.1,28.1c0,5.8-3.2,9.7-5.9,11c-0.5,0.2-0.8,0.4-0.8,0.6s0.4,0.4,0.9,0.6c2.8,1.2,6.4,4.9,6.4,11
		c0,9.8-6.5,15.2-14.8,15.2c-8.3,0-14.7-5.4-14.7-15.2c0-6.1,2.7-9.3,5.7-11c0.8-0.4,1-0.6,1-0.7c0-0.1-0.2-0.3-0.9-0.6
		c-3.2-1.8-5.2-5.2-5.2-11.2c0-8.1,5.8-13.3,14.1-13.3C48.3,14.4,54.1,19.7,54.1,28.1z M41.1,29.1c0-0.8-0.6-1.3-1.2-1.3
		s-1.1,0.5-1.1,1.3v4.4c0,0.6,0.4,0.8,1.1,0.8c0.6,0,1.2-0.3,1.2-0.8V29.1z M41.1,45.8c0-0.8-0.6-1.3-1.2-1.3s-1.1,0.5-1.1,1.3v4.7
		c0,0.8,0.6,1.4,1.2,1.4c0.6,0,1.1-0.6,1.1-1.4V45.8z"/>
</g>
</svg>
