<?xml version="1.0" encoding="utf-8"?>
<!-- Generator: Adobe Illustrator 25.2.1, SVG Export Plug-In . SVG Version: 6.00 Build 0)  -->
<svg version="1.1" id="Réteg_1" xmlns="http://www.w3.org/2000/svg" xmlns:xlink="http://www.w3.org/1999/xlink" x="0px" y="0px"
	 viewBox="0 0 80 80" style="enable-background:new 0 0 80 80;" xml:space="preserve">
<style type="text/css">
	.st0{fill:#FFE600;}
	.st1{fill:none;stroke:#000000;stroke-width:2;stroke-linecap:round;stroke-miterlimit:10;}
	.st2{fill:none;stroke:#000000;stroke-linecap:round;stroke-miterlimit:10;}
</style>
<ellipse class="st0" cx="40" cy="40" rx="38.8" ry="37.2"/>
<path class="st1" d="M40,61.4"/>
<path class="st1" d="M40,58.5"/>
<path class="st1" d="M24.2,42.7"/>
<path class="st1" d="M21.2,42.7"/>
<path class="st1" d="M55.8,42.7"/>
<path class="st2" d="M26.7,29.4"/>
<path class="st2" d="M51.2,53.9"/>
<path class="st2" d="M26.7,55.9"/>
<path class="st2" d="M28.8,53.9"/>
<g>
	<rect x="22.4" y="22.4" width="9.8" height="9.8"/>
	<rect x="47.8" y="22.4" width="9.8" height="9.8"/>
</g>
<path d="M61,55c0.1-0.1,0.3-0.1,0.4-0.1C58,49.2,49.7,45.2,40,45.2s-18,4-21.4,9.7c0.1,0,0.3,0.1,0.4,0.1c3.6-4.5,11.7-7.7,21-7.7
	S57.3,50.5,61,55z"/>
</svg>
