<?xml version="1.0" encoding="utf-8"?>
<!-- Generator: Adobe Illustrator 25.2.1, SVG Export Plug-In . SVG Version: 6.00 Build 0)  -->
<svg version="1.1" xmlns="http://www.w3.org/2000/svg" xmlns:xlink="http://www.w3.org/1999/xlink" x="0px" y="0px"
	 viewBox="0 0 80 80" style="enable-background:new 0 0 80 80;" xml:space="preserve">
<style type="text/css">
	.st0{display:none;}
	.st1{display:inline;fill:#CCCCCC;}
	.st2{display:inline;fill:#AA3333;}
	.st3{fill:#DBDBDB;}
	.st4{fill:#F2F2F2;}
	.st5{fill:#C1C1C1;}
</style>
<g id="Réteg_1" class="st0">
	<rect class="st1" width="10" height="10"/>
	<rect x="70" class="st1" width="10" height="10"/>
	<rect y="70" class="st1" width="10" height="10"/>
	<rect x="70" y="70" class="st1" width="10" height="10"/>
	<rect class="st2" width="5" height="5"/>
	<rect x="75" class="st2" width="5" height="5"/>
	<rect y="75" class="st2" width="5" height="5"/>
	<rect x="75" y="75" class="st2" width="5" height="5"/>
</g>
<g id="Réteg_3">
	<rect class="st3" width="79.5" height="79.5"/>
</g>
<g id="Réteg_2">
	<polygon class="st4" points="0,80 5,75 5,5 75,5 80,0 0,0 	"/>
	<polygon class="st5" points="5,75 10,70 10,10 70,10 75,5 5,5 	"/>
	<polygon class="st5" points="0,80 5,75 75,75 75,5 80,0 80,80 	"/>
	<polygon class="st4" points="5,75 10,70 70,70 70,10 75,5 75,75 	"/>
</g>
</svg>
